<?xml version="1.0" encoding="UTF-8" standalone="no"?>
<!DOCTYPE svg PUBLIC "-//W3C//DTD SVG 1.1//EN" "http://www.w3.org/Graphics/SVG/1.1/DTD/svg11.dtd">
<svg xmlns="http://www.w3.org/2000/svg" version="1.1" viewBox="0.00 0.00 1206.00 1232.00">
<g stroke-width="2.00" fill="none" stroke-linecap="butt">
<path stroke="#898989" vector-effect="non-scaling-stroke" d="
  M 1011.66 379.99
  C 1002.87 366.10 995.52 354.49 985.90 342.32
  Q 970.27 322.56 959.17 310.32
  C 925.53 273.24 885.82 241.38 841.51 215.65
  C 831.27 209.71 819.04 203.97 807.82 198.21
  C 804.84 196.68 801.23 195.31 798.17 193.86
  Q 794.35 192.04 790.87 190.69
  Q 775.61 184.75 760.96 179.33
  C 755.01 177.12 748.70 175.56 743.67 173.84
  Q 737.77 171.83 730.58 170.19
  Q 727.27 169.44 708.28 164.71
  Q 703.25 163.46 684.79 160.20
  Q 670.76 157.73 661.13 156.76
  Q 601.46 150.77 548.75 157.29
  Q 500.06 163.32 456.02 178.33
  Q 434.53 185.66 418.66 192.69
  Q 401.88 200.12 382.09 210.63
  Q 355.47 224.78 326.63 245.60
  C 239.46 308.54 175.70 401.56 146.67 505.19
  Q 146.52 505.72 141.08 527.53
  Q 138.29 538.72 136.49 550.07
  Q 132.46 575.51 132.36 576.44
  Q 126.17 636.17 132.90 689.43
  Q 133.85 696.97 137.33 717.33
  C 139.48 729.96 142.26 739.72 145.55 753.69
  Q 146.42 757.38 147.60 760.03
  A 0.87 0.87 0.0 0 0 148.39 760.54
  L 195.36 760.32
  A 0.72 0.71 84.9 0 0 196.06 759.47
  Q 195.39 755.77 194.02 751.73
  C 191.39 743.98 189.29 733.78 187.69 728.23
  Q 185.65 721.17 184.14 712.28
  Q 179.87 687.17 179.65 685.28
  Q 173.71 634.43 178.70 584.93
  C 179.72 574.89 182.45 561.92 183.60 553.32
  Q 184.74 544.80 188.68 529.85
  Q 193.57 511.28 198.51 496.46
  C 210.50 460.50 227.35 425.95 248.78 394.14
  Q 255.36 384.37 257.67 381.17
  Q 273.20 359.63 294.73 336.24
  Q 297.88 332.81 303.71 327.22
  C 312.44 318.83 318.48 312.70 326.99 305.54
  Q 376.82 263.57 431.92 238.72
  Q 451.88 229.71 481.61 220.08
  Q 488.32 217.91 492.70 216.83
  C 501.92 214.55 511.65 211.66 520.72 209.89
  Q 578.11 198.69 636.21 202.39
  Q 691.25 205.90 744.64 223.96
  Q 748.48 225.26 754.40 227.59
  C 759.63 229.64 765.83 231.55 771.27 233.98
  C 776.60 236.36 781.92 238.43 788.67 241.76
  Q 798.15 246.45 807.71 251.30
  Q 810.64 252.79 828.89 263.54
  Q 839.52 269.81 849.43 276.82
  Q 876.84 296.22 899.97 317.53
  C 919.79 335.79 938.86 357.73 954.56 379.64
  A 2.89 2.89 0.0 0 0 956.94 380.86
  L 1011.32 380.60
  A 0.40 0.40 0.0 0 0 1011.66 379.99"
/>
<path stroke="#898989" vector-effect="non-scaling-stroke" d="
  M 294.23 759.69
  Q 290.62 749.43 288.54 744.12
  Q 285.42 736.21 283.07 728.47
  Q 260.36 653.74 273.22 575.66
  C 274.49 567.95 276.45 560.71 277.82 553.80
  Q 279.45 545.56 281.96 537.57
  Q 288.62 516.37 293.97 503.45
  C 307.27 471.29 326.36 439.52 349.72 412.53
  Q 361.92 398.43 372.80 388.05
  Q 387.00 374.51 406.05 360.02
  Q 416.70 351.93 427.55 345.26
  Q 441.65 336.59 450.08 332.12
  Q 504.58 303.26 566.26 295.98
  Q 618.18 289.86 669.76 299.32
  C 677.02 300.65 683.75 302.61 691.16 304.13
  C 698.42 305.63 708.75 308.94 714.95 311.05
  Q 719.88 312.72 738.61 320.41
  Q 751.18 325.58 761.66 331.17
  Q 792.08 347.39 816.77 367.00
  Q 822.20 371.31 832.34 380.09
  A 2.51 2.50 65.5 0 0 833.99 380.71
  Q 888.41 380.83 897.19 380.65
  Q 897.77 380.64 898.04 380.46
  A 0.42 0.42 0.0 0 0 898.12 379.85
  C 876.96 354.92 851.78 332.68 824.37 313.65
  Q 806.15 300.99 779.84 287.21
  C 756.69 275.09 730.70 265.59 704.19 258.32
  Q 702.08 257.74 686.43 254.18
  Q 676.82 252.00 668.53 250.70
  C 634.74 245.39 600.82 244.15 566.09 248.10
  Q 546.07 250.38 533.81 252.82
  Q 531.30 253.32 519.06 256.06
  Q 508.86 258.34 504.45 259.72
  C 495.92 262.41 490.20 263.77 481.92 266.65
  Q 439.05 281.58 399.86 306.64
  C 377.71 320.81 357.74 336.77 338.92 354.91
  Q 322.06 371.16 304.74 392.73
  Q 280.40 423.05 260.18 463.64
  Q 250.52 483.03 241.03 510.72
  C 238.53 518.04 237.27 523.93 235.15 530.57
  C 232.37 539.32 230.87 548.90 228.56 558.17
  Q 227.71 561.58 226.29 570.87
  C 219.56 614.86 219.79 660.74 228.59 704.41
  Q 234.25 732.55 244.03 759.92
  A 0.44 0.44 0.0 0 0 244.45 760.22
  L 294.02 759.98
  A 0.22 0.22 0.0 0 0 294.23 759.69"
/>
<path stroke="#898989" vector-effect="non-scaling-stroke" d="
  M 392.39 759.38
  Q 391.82 757.76 391.16 756.61
  Q 377.16 732.17 368.42 704.88
  Q 365.96 697.21 363.73 686.93
  Q 360.69 672.91 360.08 668.73
  C 356.05 641.01 356.03 611.37 362.05 583.62
  Q 365.81 566.32 366.78 563.02
  Q 374.03 538.25 387.48 512.46
  Q 393.02 501.83 402.01 489.02
  C 420.99 461.97 444.41 439.76 471.60 421.65
  Q 483.56 413.69 499.33 406.09
  Q 548.11 382.61 601.01 381.73
  C 613.87 381.52 625.97 381.82 637.01 381.54
  C 657.37 381.02 682.24 381.75 704.67 381.66
  Q 706.43 381.66 765.08 381.69
  A 0.55 0.54 -7.3 0 0 765.61 381.01
  Q 765.58 380.92 765.27 380.72
  Q 752.57 372.57 741.52 366.79
  Q 737.53 364.70 716.47 355.26
  C 709.01 351.91 698.27 348.31 692.18 346.60
  C 678.09 342.63 659.67 338.12 643.33 336.35
  C 616.04 333.40 588.48 333.25 561.95 337.70
  Q 542.64 340.94 531.45 343.97
  Q 499.55 352.62 469.94 368.02
  C 459.30 373.55 447.17 381.13 438.60 387.09
  Q 403.80 411.25 376.58 444.39
  C 372.55 449.30 369.62 453.74 365.19 459.70
  Q 361.60 464.51 357.13 471.51
  Q 342.87 493.85 333.93 515.64
  Q 327.30 531.77 324.53 540.51
  Q 309.25 588.63 310.25 639.24
  Q 310.67 660.89 314.34 680.96
  C 315.68 688.30 318.15 701.38 321.02 710.91
  Q 328.77 736.67 339.34 759.17
  A 1.20 1.18 -12.4 0 0 340.42 759.85
  L 392.23 759.61
  A 0.17 0.17 0.0 0 0 392.39 759.38"
/>
<path stroke="#898989" vector-effect="non-scaling-stroke" d="
  M 986.08 427.68
  A 0.45 0.45 0.0 0 0 985.67 428.33
  Q 988.71 434.61 991.16 438.81
  C 994.24 444.11 996.32 449.37 999.64 456.12
  Q 1000.56 457.99 1010.08 481.98
  C 1017.13 499.77 1022.39 519.57 1027.21 537.79
  A 0.95 0.94 -7.7 0 0 1028.12 538.48
  L 1074.26 538.26
  A 0.66 0.65 -4.2 0 0 1074.91 537.51
  C 1073.44 527.49 1069.87 516.59 1067.92 508.32
  Q 1066.61 502.77 1064.92 498.58
  Q 1064.31 497.05 1061.96 488.83
  Q 1060.18 482.56 1057.26 474.28
  Q 1049.04 450.97 1038.35 428.33
  A 1.57 1.54 76.7 0 0 1036.94 427.44
  L 986.08 427.68"
/>
<path stroke="#898989" vector-effect="non-scaling-stroke" d="
  M 876.42 427.83
  A 0.31 0.30 71.3 0 0 876.18 428.32
  C 890.41 447.24 902.69 466.63 912.89 488.79
  Q 923.26 511.34 930.33 534.67
  Q 931.17 537.45 931.59 538.27
  A 1.13 1.13 0.0 0 0 932.58 538.86
  L 979.78 538.64
  A 0.57 0.57 0.0 0 0 980.33 537.93
  Q 971.64 504.39 957.93 473.55
  C 950.77 457.43 942.69 443.40 933.65 428.31
  A 1.52 1.52 0.0 0 0 932.33 427.57
  L 876.42 427.83"
/>
<path stroke="#898989" vector-effect="non-scaling-stroke" d="
  M 752.07 429.04
  Q 754.87 431.07 755.95 431.84
  Q 770.26 441.92 785.22 457.52
  Q 797.52 470.35 806.35 482.13
  Q 815.31 494.09 826.40 513.59
  Q 831.64 522.80 837.88 538.01
  A 1.60 1.58 78.5 0 0 839.36 539.00
  L 887.36 538.78
  A 0.84 0.84 0.0 0 0 888.15 537.68
  Q 867.63 475.52 822.48 429.00
  A 1.94 1.89 67.2 0 0 821.08 428.41
  L 752.17 428.73
  A 0.17 0.17 0.0 0 0 752.07 429.04"
/>
<path stroke="#898989" vector-effect="non-scaling-stroke" d="
  M 163.90 806.98
  Q 164.62 809.81 165.50 812.04
  Q 179.07 846.51 199.91 880.86
  Q 240.60 947.93 301.91 998.85
  Q 335.58 1026.81 371.48 1047.01
  Q 383.28 1053.65 397.33 1060.65
  C 414.37 1069.15 431.16 1075.63 448.34 1082.08
  C 467.23 1089.16 487.08 1094.08 507.30 1098.65
  Q 518.89 1101.28 531.12 1103.17
  C 581.26 1110.91 632.73 1111.22 683.01 1103.14
  Q 698.96 1100.58 709.00 1098.20
  C 729.62 1093.30 750.65 1087.96 769.58 1080.65
  Q 786.66 1074.06 794.47 1070.83
  Q 804.99 1066.48 818.66 1059.47
  Q 838.68 1049.21 846.16 1044.87
  C 890.70 1019.02 932.05 985.42 965.63 946.38
  Q 983.76 925.30 994.81 909.82
  Q 1030.58 859.74 1052.20 801.64
  A 0.30 0.30 0.0 0 0 1051.91 801.24
  L 788.42 802.47
  A 1.63 1.62 -68.0 0 0 787.25 802.97
  Q 755.50 835.85 714.14 856.06
  C 708.52 858.81 702.68 860.85 697.29 863.14
  Q 690.88 865.89 684.46 867.99
  Q 649.62 879.41 615.48 880.33
  Q 583.64 881.18 548.98 873.56
  Q 542.37 872.11 532.68 868.88
  C 518.50 864.17 507.02 860.12 494.71 853.79
  C 489.49 851.11 485.36 848.33 480.59 845.73
  Q 475.73 843.09 470.18 839.40
  Q 448.26 824.84 429.84 806.33
  A 3.34 3.31 -22.3 0 0 427.49 805.36
  L 164.20 806.60
  A 0.31 0.30 -7.2 0 0 163.90 806.98"
/>
</g>
<path fill="#131313" d="
  M 1206.00 0.00
  L 1206.00 1232.00
  L 0.00 1232.00
  L 0.00 0.00
  L 1206.00 0.00
  Z
  M 1011.66 379.99
  C 1002.87 366.10 995.52 354.49 985.90 342.32
  Q 970.27 322.56 959.17 310.32
  C 925.53 273.24 885.82 241.38 841.51 215.65
  C 831.27 209.71 819.04 203.97 807.82 198.21
  C 804.84 196.68 801.23 195.31 798.17 193.86
  Q 794.35 192.04 790.87 190.69
  Q 775.61 184.75 760.96 179.33
  C 755.01 177.12 748.70 175.56 743.67 173.84
  Q 737.77 171.83 730.58 170.19
  Q 727.27 169.44 708.28 164.71
  Q 703.25 163.46 684.79 160.20
  Q 670.76 157.73 661.13 156.76
  Q 601.46 150.77 548.75 157.29
  Q 500.06 163.32 456.02 178.33
  Q 434.53 185.66 418.66 192.69
  Q 401.88 200.12 382.09 210.63
  Q 355.47 224.78 326.63 245.60
  C 239.46 308.54 175.70 401.56 146.67 505.19
  Q 146.52 505.72 141.08 527.53
  Q 138.29 538.72 136.49 550.07
  Q 132.46 575.51 132.36 576.44
  Q 126.17 636.17 132.90 689.43
  Q 133.85 696.97 137.33 717.33
  C 139.48 729.96 142.26 739.72 145.55 753.69
  Q 146.42 757.38 147.60 760.03
  A 0.87 0.87 0.0 0 0 148.39 760.54
  L 195.36 760.32
  A 0.72 0.71 84.9 0 0 196.06 759.47
  Q 195.39 755.77 194.02 751.73
  C 191.39 743.98 189.29 733.78 187.69 728.23
  Q 185.65 721.17 184.14 712.28
  Q 179.87 687.17 179.65 685.28
  Q 173.71 634.43 178.70 584.93
  C 179.72 574.89 182.45 561.92 183.60 553.32
  Q 184.74 544.80 188.68 529.85
  Q 193.57 511.28 198.51 496.46
  C 210.50 460.50 227.35 425.95 248.78 394.14
  Q 255.36 384.37 257.67 381.17
  Q 273.20 359.63 294.73 336.24
  Q 297.88 332.81 303.71 327.22
  C 312.44 318.83 318.48 312.70 326.99 305.54
  Q 376.82 263.57 431.92 238.72
  Q 451.88 229.71 481.61 220.08
  Q 488.32 217.91 492.70 216.83
  C 501.92 214.55 511.65 211.66 520.72 209.89
  Q 578.11 198.69 636.21 202.39
  Q 691.25 205.90 744.64 223.96
  Q 748.48 225.26 754.40 227.59
  C 759.63 229.64 765.83 231.55 771.27 233.98
  C 776.60 236.36 781.92 238.43 788.67 241.76
  Q 798.15 246.45 807.71 251.30
  Q 810.64 252.79 828.89 263.54
  Q 839.52 269.81 849.43 276.82
  Q 876.84 296.22 899.97 317.53
  C 919.79 335.79 938.86 357.73 954.56 379.64
  A 2.89 2.89 0.0 0 0 956.94 380.86
  L 1011.32 380.60
  A 0.40 0.40 0.0 0 0 1011.66 379.99
  Z
  M 294.23 759.69
  Q 290.62 749.43 288.54 744.12
  Q 285.42 736.21 283.07 728.47
  Q 260.36 653.74 273.22 575.66
  C 274.49 567.95 276.45 560.71 277.82 553.80
  Q 279.45 545.56 281.96 537.57
  Q 288.62 516.37 293.97 503.45
  C 307.27 471.29 326.36 439.52 349.72 412.53
  Q 361.92 398.43 372.80 388.05
  Q 387.00 374.51 406.05 360.02
  Q 416.70 351.93 427.55 345.26
  Q 441.65 336.59 450.08 332.12
  Q 504.58 303.26 566.26 295.98
  Q 618.18 289.86 669.76 299.32
  C 677.02 300.65 683.75 302.61 691.16 304.13
  C 698.42 305.63 708.75 308.94 714.95 311.05
  Q 719.88 312.72 738.61 320.41
  Q 751.18 325.58 761.66 331.17
  Q 792.08 347.39 816.77 367.00
  Q 822.20 371.31 832.34 380.09
  A 2.51 2.50 65.5 0 0 833.99 380.71
  Q 888.41 380.83 897.19 380.65
  Q 897.77 380.64 898.04 380.46
  A 0.42 0.42 0.0 0 0 898.12 379.85
  C 876.96 354.92 851.78 332.68 824.37 313.65
  Q 806.15 300.99 779.84 287.21
  C 756.69 275.09 730.70 265.59 704.19 258.32
  Q 702.08 257.74 686.43 254.18
  Q 676.82 252.00 668.53 250.70
  C 634.74 245.39 600.82 244.15 566.09 248.10
  Q 546.07 250.38 533.81 252.82
  Q 531.30 253.32 519.06 256.06
  Q 508.86 258.34 504.45 259.72
  C 495.92 262.41 490.20 263.77 481.92 266.65
  Q 439.05 281.58 399.86 306.64
  C 377.71 320.81 357.74 336.77 338.92 354.91
  Q 322.06 371.16 304.74 392.73
  Q 280.40 423.05 260.18 463.64
  Q 250.52 483.03 241.03 510.72
  C 238.53 518.04 237.27 523.93 235.15 530.57
  C 232.37 539.32 230.87 548.90 228.56 558.17
  Q 227.71 561.58 226.29 570.87
  C 219.56 614.86 219.79 660.74 228.59 704.41
  Q 234.25 732.55 244.03 759.92
  A 0.44 0.44 0.0 0 0 244.45 760.22
  L 294.02 759.98
  A 0.22 0.22 0.0 0 0 294.23 759.69
  Z
  M 392.39 759.38
  Q 391.82 757.76 391.16 756.61
  Q 377.16 732.17 368.42 704.88
  Q 365.96 697.21 363.73 686.93
  Q 360.69 672.91 360.08 668.73
  C 356.05 641.01 356.03 611.37 362.05 583.62
  Q 365.81 566.32 366.78 563.02
  Q 374.03 538.25 387.48 512.46
  Q 393.02 501.83 402.01 489.02
  C 420.99 461.97 444.41 439.76 471.60 421.65
  Q 483.56 413.69 499.33 406.09
  Q 548.11 382.61 601.01 381.73
  C 613.87 381.52 625.97 381.82 637.01 381.54
  C 657.37 381.02 682.24 381.75 704.67 381.66
  Q 706.43 381.66 765.08 381.69
  A 0.55 0.54 -7.3 0 0 765.61 381.01
  Q 765.58 380.92 765.27 380.72
  Q 752.57 372.57 741.52 366.79
  Q 737.53 364.70 716.47 355.26
  C 709.01 351.91 698.27 348.31 692.18 346.60
  C 678.09 342.63 659.67 338.12 643.33 336.35
  C 616.04 333.40 588.48 333.25 561.95 337.70
  Q 542.64 340.94 531.45 343.97
  Q 499.55 352.62 469.94 368.02
  C 459.30 373.55 447.17 381.13 438.60 387.09
  Q 403.80 411.25 376.58 444.39
  C 372.55 449.30 369.62 453.74 365.19 459.70
  Q 361.60 464.51 357.13 471.51
  Q 342.87 493.85 333.93 515.64
  Q 327.30 531.77 324.53 540.51
  Q 309.25 588.63 310.25 639.24
  Q 310.67 660.89 314.34 680.96
  C 315.68 688.30 318.15 701.38 321.02 710.91
  Q 328.77 736.67 339.34 759.17
  A 1.20 1.18 -12.4 0 0 340.42 759.85
  L 392.23 759.61
  A 0.17 0.17 0.0 0 0 392.39 759.38
  Z
  M 986.08 427.68
  A 0.45 0.45 0.0 0 0 985.67 428.33
  Q 988.71 434.61 991.16 438.81
  C 994.24 444.11 996.32 449.37 999.64 456.12
  Q 1000.56 457.99 1010.08 481.98
  C 1017.13 499.77 1022.39 519.57 1027.21 537.79
  A 0.95 0.94 -7.7 0 0 1028.12 538.48
  L 1074.26 538.26
  A 0.66 0.65 -4.2 0 0 1074.91 537.51
  C 1073.44 527.49 1069.87 516.59 1067.92 508.32
  Q 1066.61 502.77 1064.92 498.58
  Q 1064.31 497.05 1061.96 488.83
  Q 1060.18 482.56 1057.26 474.28
  Q 1049.04 450.97 1038.35 428.33
  A 1.57 1.54 76.7 0 0 1036.94 427.44
  L 986.08 427.68
  Z
  M 876.42 427.83
  A 0.31 0.30 71.3 0 0 876.18 428.32
  C 890.41 447.24 902.69 466.63 912.89 488.79
  Q 923.26 511.34 930.33 534.67
  Q 931.17 537.45 931.59 538.27
  A 1.13 1.13 0.0 0 0 932.58 538.86
  L 979.78 538.64
  A 0.57 0.57 0.0 0 0 980.33 537.93
  Q 971.64 504.39 957.93 473.55
  C 950.77 457.43 942.69 443.40 933.65 428.31
  A 1.52 1.52 0.0 0 0 932.33 427.57
  L 876.42 427.83
  Z
  M 752.07 429.04
  Q 754.87 431.07 755.95 431.84
  Q 770.26 441.92 785.22 457.52
  Q 797.52 470.35 806.35 482.13
  Q 815.31 494.09 826.40 513.59
  Q 831.64 522.80 837.88 538.01
  A 1.60 1.58 78.5 0 0 839.36 539.00
  L 887.36 538.78
  A 0.84 0.84 0.0 0 0 888.15 537.68
  Q 867.63 475.52 822.48 429.00
  A 1.94 1.89 67.2 0 0 821.08 428.41
  L 752.17 428.73
  A 0.17 0.17 0.0 0 0 752.07 429.04
  Z
  M 163.90 806.98
  Q 164.62 809.81 165.50 812.04
  Q 179.07 846.51 199.91 880.86
  Q 240.60 947.93 301.91 998.85
  Q 335.58 1026.81 371.48 1047.01
  Q 383.28 1053.65 397.33 1060.65
  C 414.37 1069.15 431.16 1075.63 448.34 1082.08
  C 467.23 1089.16 487.08 1094.08 507.30 1098.65
  Q 518.89 1101.28 531.12 1103.17
  C 581.26 1110.91 632.73 1111.22 683.01 1103.14
  Q 698.96 1100.58 709.00 1098.20
  C 729.62 1093.30 750.65 1087.96 769.58 1080.65
  Q 786.66 1074.06 794.47 1070.83
  Q 804.99 1066.48 818.66 1059.47
  Q 838.68 1049.21 846.16 1044.87
  C 890.70 1019.02 932.05 985.42 965.63 946.38
  Q 983.76 925.30 994.81 909.82
  Q 1030.58 859.74 1052.20 801.64
  A 0.30 0.30 0.0 0 0 1051.91 801.24
  L 788.42 802.47
  A 1.63 1.62 -68.0 0 0 787.25 802.97
  Q 755.50 835.85 714.14 856.06
  C 708.52 858.81 702.68 860.85 697.29 863.14
  Q 690.88 865.89 684.46 867.99
  Q 649.62 879.41 615.48 880.33
  Q 583.64 881.18 548.98 873.56
  Q 542.37 872.11 532.68 868.88
  C 518.50 864.17 507.02 860.12 494.71 853.79
  C 489.49 851.11 485.36 848.33 480.59 845.73
  Q 475.73 843.09 470.18 839.40
  Q 448.26 824.84 429.84 806.33
  A 3.34 3.31 -22.3 0 0 427.49 805.36
  L 164.20 806.60
  A 0.31 0.30 -7.2 0 0 163.90 806.98
  Z"
/>
<path fill="#ffffff" d="
  M 1011.66 379.99
  A 0.40 0.40 0.0 0 1 1011.32 380.60
  L 956.94 380.86
  A 2.89 2.89 0.0 0 1 954.56 379.64
  C 938.86 357.73 919.79 335.79 899.97 317.53
  Q 876.84 296.22 849.43 276.82
  Q 839.52 269.81 828.89 263.54
  Q 810.64 252.79 807.71 251.30
  Q 798.15 246.45 788.67 241.76
  C 781.92 238.43 776.60 236.36 771.27 233.98
  C 765.83 231.55 759.63 229.64 754.40 227.59
  Q 748.48 225.26 744.64 223.96
  Q 691.25 205.90 636.21 202.39
  Q 578.11 198.69 520.72 209.89
  C 511.65 211.66 501.92 214.55 492.70 216.83
  Q 488.32 217.91 481.61 220.08
  Q 451.88 229.71 431.92 238.72
  Q 376.82 263.57 326.99 305.54
  C 318.48 312.70 312.44 318.83 303.71 327.22
  Q 297.88 332.81 294.73 336.24
  Q 273.20 359.63 257.67 381.17
  Q 255.36 384.37 248.78 394.14
  C 227.35 425.95 210.50 460.50 198.51 496.46
  Q 193.57 511.28 188.68 529.85
  Q 184.74 544.80 183.60 553.32
  C 182.45 561.92 179.72 574.89 178.70 584.93
  Q 173.71 634.43 179.65 685.28
  Q 179.87 687.17 184.14 712.28
  Q 185.65 721.17 187.69 728.23
  C 189.29 733.78 191.39 743.98 194.02 751.73
  Q 195.39 755.77 196.06 759.47
  A 0.72 0.71 84.9 0 1 195.36 760.32
  L 148.39 760.54
  A 0.87 0.87 0.0 0 1 147.60 760.03
  Q 146.42 757.38 145.55 753.69
  C 142.26 739.72 139.48 729.96 137.33 717.33
  Q 133.85 696.97 132.90 689.43
  Q 126.17 636.17 132.36 576.44
  Q 132.46 575.51 136.49 550.07
  Q 138.29 538.72 141.08 527.53
  Q 146.52 505.72 146.67 505.19
  C 175.70 401.56 239.46 308.54 326.63 245.60
  Q 355.47 224.78 382.09 210.63
  Q 401.88 200.12 418.66 192.69
  Q 434.53 185.66 456.02 178.33
  Q 500.06 163.32 548.75 157.29
  Q 601.46 150.77 661.13 156.76
  Q 670.76 157.73 684.79 160.20
  Q 703.25 163.46 708.28 164.71
  Q 727.27 169.44 730.58 170.19
  Q 737.77 171.83 743.67 173.84
  C 748.70 175.56 755.01 177.12 760.96 179.33
  Q 775.61 184.75 790.87 190.69
  Q 794.35 192.04 798.17 193.86
  C 801.23 195.31 804.84 196.68 807.82 198.21
  C 819.04 203.97 831.27 209.71 841.51 215.65
  C 885.82 241.38 925.53 273.24 959.17 310.32
  Q 970.27 322.56 985.90 342.32
  C 995.52 354.49 1002.87 366.10 1011.66 379.99
  Z"
/>
<path fill="#ffffff" d="
  M 294.23 759.69
  A 0.22 0.22 0.0 0 1 294.02 759.98
  L 244.45 760.22
  A 0.44 0.44 0.0 0 1 244.03 759.92
  Q 234.25 732.55 228.59 704.41
  C 219.79 660.74 219.56 614.86 226.29 570.87
  Q 227.71 561.58 228.56 558.17
  C 230.87 548.90 232.37 539.32 235.15 530.57
  C 237.27 523.93 238.53 518.04 241.03 510.72
  Q 250.52 483.03 260.18 463.64
  Q 280.40 423.05 304.74 392.73
  Q 322.06 371.16 338.92 354.91
  C 357.74 336.77 377.71 320.81 399.86 306.64
  Q 439.05 281.58 481.92 266.65
  C 490.20 263.77 495.92 262.41 504.45 259.72
  Q 508.86 258.34 519.06 256.06
  Q 531.30 253.32 533.81 252.82
  Q 546.07 250.38 566.09 248.10
  C 600.82 244.15 634.74 245.39 668.53 250.70
  Q 676.82 252.00 686.43 254.18
  Q 702.08 257.74 704.19 258.32
  C 730.70 265.59 756.69 275.09 779.84 287.21
  Q 806.15 300.99 824.37 313.65
  C 851.78 332.68 876.96 354.92 898.12 379.85
  A 0.42 0.42 0.0 0 1 898.04 380.46
  Q 897.77 380.64 897.19 380.65
  Q 888.41 380.83 833.99 380.71
  A 2.51 2.50 65.5 0 1 832.34 380.09
  Q 822.20 371.31 816.77 367.00
  Q 792.08 347.39 761.66 331.17
  Q 751.18 325.58 738.61 320.41
  Q 719.88 312.72 714.95 311.05
  C 708.75 308.94 698.42 305.63 691.16 304.13
  C 683.75 302.61 677.02 300.65 669.76 299.32
  Q 618.18 289.86 566.26 295.98
  Q 504.58 303.26 450.08 332.12
  Q 441.65 336.59 427.55 345.26
  Q 416.70 351.93 406.05 360.02
  Q 387.00 374.51 372.80 388.05
  Q 361.92 398.43 349.72 412.53
  C 326.36 439.52 307.27 471.29 293.97 503.45
  Q 288.62 516.37 281.96 537.57
  Q 279.45 545.56 277.82 553.80
  C 276.45 560.71 274.49 567.95 273.22 575.66
  Q 260.36 653.74 283.07 728.47
  Q 285.42 736.21 288.54 744.12
  Q 290.62 749.43 294.23 759.69
  Z"
/>
<path fill="#ffffff" d="
  M 392.39 759.38
  A 0.17 0.17 0.0 0 1 392.23 759.61
  L 340.42 759.85
  A 1.20 1.18 -12.4 0 1 339.34 759.17
  Q 328.77 736.67 321.02 710.91
  C 318.15 701.38 315.68 688.30 314.34 680.96
  Q 310.67 660.89 310.25 639.24
  Q 309.25 588.63 324.53 540.51
  Q 327.30 531.77 333.93 515.64
  Q 342.87 493.85 357.13 471.51
  Q 361.60 464.51 365.19 459.70
  C 369.62 453.74 372.55 449.30 376.58 444.39
  Q 403.80 411.25 438.60 387.09
  C 447.17 381.13 459.30 373.55 469.94 368.02
  Q 499.55 352.62 531.45 343.97
  Q 542.64 340.94 561.95 337.70
  C 588.48 333.25 616.04 333.40 643.33 336.35
  C 659.67 338.12 678.09 342.63 692.18 346.60
  C 698.27 348.31 709.01 351.91 716.47 355.26
  Q 737.53 364.70 741.52 366.79
  Q 752.57 372.57 765.27 380.72
  Q 765.58 380.92 765.61 381.01
  A 0.55 0.54 -7.3 0 1 765.08 381.69
  Q 706.43 381.66 704.67 381.66
  C 682.24 381.75 657.37 381.02 637.01 381.54
  C 625.97 381.82 613.87 381.52 601.01 381.73
  Q 548.11 382.61 499.33 406.09
  Q 483.56 413.69 471.60 421.65
  C 444.41 439.76 420.99 461.97 402.01 489.02
  Q 393.02 501.83 387.48 512.46
  Q 374.03 538.25 366.78 563.02
  Q 365.81 566.32 362.05 583.62
  C 356.03 611.37 356.05 641.01 360.08 668.73
  Q 360.69 672.91 363.73 686.93
  Q 365.96 697.21 368.42 704.88
  Q 377.16 732.17 391.16 756.61
  Q 391.82 757.76 392.39 759.38
  Z"
/>
<path fill="#ffffff" d="
  M 986.08 427.68
  L 1036.94 427.44
  A 1.57 1.54 76.7 0 1 1038.35 428.33
  Q 1049.04 450.97 1057.26 474.28
  Q 1060.18 482.56 1061.96 488.83
  Q 1064.31 497.05 1064.92 498.58
  Q 1066.61 502.77 1067.92 508.32
  C 1069.87 516.59 1073.44 527.49 1074.91 537.51
  A 0.66 0.65 -4.2 0 1 1074.26 538.26
  L 1028.12 538.48
  A 0.95 0.94 -7.7 0 1 1027.21 537.79
  C 1022.39 519.57 1017.13 499.77 1010.08 481.98
  Q 1000.56 457.99 999.64 456.12
  C 996.32 449.37 994.24 444.11 991.16 438.81
  Q 988.71 434.61 985.67 428.33
  A 0.45 0.45 0.0 0 1 986.08 427.68
  Z"
/>
<path fill="#ffffff" d="
  M 876.42 427.83
  L 932.33 427.57
  A 1.52 1.52 0.0 0 1 933.65 428.31
  C 942.69 443.40 950.77 457.43 957.93 473.55
  Q 971.64 504.39 980.33 537.93
  A 0.57 0.57 0.0 0 1 979.78 538.64
  L 932.58 538.86
  A 1.13 1.13 0.0 0 1 931.59 538.27
  Q 931.17 537.45 930.33 534.67
  Q 923.26 511.34 912.89 488.79
  C 902.69 466.63 890.41 447.24 876.18 428.32
  A 0.31 0.30 71.3 0 1 876.42 427.83
  Z"
/>
<path fill="#ffffff" d="
  M 752.07 429.04
  A 0.17 0.17 0.0 0 1 752.17 428.73
  L 821.08 428.41
  A 1.94 1.89 67.2 0 1 822.48 429.00
  Q 867.63 475.52 888.15 537.68
  A 0.84 0.84 0.0 0 1 887.36 538.78
  L 839.36 539.00
  A 1.60 1.58 78.5 0 1 837.88 538.01
  Q 831.64 522.80 826.40 513.59
  Q 815.31 494.09 806.35 482.13
  Q 797.52 470.35 785.22 457.52
  Q 770.26 441.92 755.95 431.84
  Q 754.87 431.07 752.07 429.04
  Z"
/>
<path fill="#ffffff" d="
  M 163.90 806.98
  A 0.31 0.30 -7.2 0 1 164.20 806.60
  L 427.49 805.36
  A 3.34 3.31 -22.3 0 1 429.84 806.33
  Q 448.26 824.84 470.18 839.40
  Q 475.73 843.09 480.59 845.73
  C 485.36 848.33 489.49 851.11 494.71 853.79
  C 507.02 860.12 518.50 864.17 532.68 868.88
  Q 542.37 872.11 548.98 873.56
  Q 583.64 881.18 615.48 880.33
  Q 649.62 879.41 684.46 867.99
  Q 690.88 865.89 697.29 863.14
  C 702.68 860.85 708.52 858.81 714.14 856.06
  Q 755.50 835.85 787.25 802.97
  A 1.63 1.62 -68.0 0 1 788.42 802.47
  L 1051.91 801.24
  A 0.30 0.30 0.0 0 1 1052.20 801.64
  Q 1030.58 859.74 994.81 909.82
  Q 983.76 925.30 965.63 946.38
  C 932.05 985.42 890.70 1019.02 846.16 1044.87
  Q 838.68 1049.21 818.66 1059.47
  Q 804.99 1066.48 794.47 1070.83
  Q 786.66 1074.06 769.58 1080.65
  C 750.65 1087.96 729.62 1093.30 709.00 1098.20
  Q 698.96 1100.58 683.01 1103.14
  C 632.73 1111.22 581.26 1110.91 531.12 1103.17
  Q 518.89 1101.28 507.30 1098.65
  C 487.08 1094.08 467.23 1089.16 448.34 1082.08
  C 431.16 1075.63 414.37 1069.15 397.33 1060.65
  Q 383.28 1053.65 371.48 1047.01
  Q 335.58 1026.81 301.91 998.85
  Q 240.60 947.93 199.91 880.86
  Q 179.07 846.51 165.50 812.04
  Q 164.62 809.81 163.90 806.98
  Z"
/>
</svg>
